<?xml version="1.0" encoding="utf-8"?>
<!-- Generator: Adobe Illustrator 21.0.2, SVG Export Plug-In . SVG Version: 6.00 Build 0)  -->
<svg version="1.1" id="Layer_1" xmlns="http://www.w3.org/2000/svg" xmlns:xlink="http://www.w3.org/1999/xlink" x="0px" y="0px"
	 viewBox="0 0 27.2 14.8" style="enable-background:new 0 0 27.2 14.8;" xml:space="preserve">
<style type="text/css">
	.st0{fill:#ECEFF0;}
	.st1{fill:#ECEFF0;stroke:#ECEFF0;stroke-miterlimit:10;}
	.st2{fill:#ECEFF0;stroke:#ECEFF0;stroke-width:2;stroke-miterlimit:10;}
</style>
<path id="Path_103" class="st0" d="M3.8,45.9h4v-4h-4V45.9z M3.8,50.9h4v-4h-4V50.9z M3.8,40.9h4v-4h-4V40.9z M8.8,45.9h12v-4h-12
	V45.9z M8.8,50.9h12v-4h-12V50.9z M8.8,36.9v4h12v-4H8.8z"/>
<g>
	<path class="st1" d="M11.6,4.9c-0.1,0.2-0.2,0.3-0.4,0.4L2.8,9.4c0.4,0.9,1,1.6,1.7,2.1C5.2,12,6,12.3,6.9,12.4
		c0.9,0.1,1.8-0.1,2.7-0.5c1.9-1,3.2-3.7,3.3-3.6c0.2,0.1,0.3,0.2,0.4,0.3c0.1,0.2,0.1,0.3,0,0.6c-0.2,0.8-0.5,1.6-1.1,2.3
		c-0.5,0.7-1.2,1.3-2,1.7c-1.1,0.5-2.3,0.8-3.4,0.7c-1.1-0.1-2.1-0.4-3-1c-0.9-0.6-1.7-1.5-2.2-2.7C1,8.9,0.7,7.7,0.7,6.6
		c0-1.1,0.3-2.2,0.9-3c0.6-0.9,1.3-1.5,2.2-2C4.7,1.2,5.7,1,6.6,1c1,0,1.9,0.3,2.8,0.9c0.9,0.6,1.6,1.4,2.1,2.5
		C11.6,4.5,11.6,4.7,11.6,4.9z M2.5,4.9C2.1,5.9,2,7,2.4,8.2l7.5-3.7L9.8,4.3C9.4,3.7,8.9,3.2,8.3,2.9C7.7,2.6,7,2.4,6.4,2.5
		C5.7,2.5,5,2.6,4.5,2.9C3.6,3.3,3,4,2.5,4.9z"/>
</g>
<g>
	<path class="st1" d="M15.6,9.6c0.1-0.2,0.2-0.3,0.4-0.4l8.4-4.1c-0.4-0.9-1-1.6-1.7-2.1c-0.7-0.5-1.5-0.8-2.4-0.9
		c-1.2-0.2-2.1,0.1-2.8,0.4c-1.7,0.8-3.1,3.8-3.3,3.7c-0.2-0.1-0.3-0.2-0.4-0.3c-0.1-0.2-0.1-0.3,0-0.6C14.1,4.5,14.4,3.8,15,3
		c0.5-0.7,1.2-1.3,2-1.7c1.1-0.5,2.3-0.8,3.4-0.7c1.1,0.1,2.1,0.4,3,1c0.9,0.6,1.7,1.5,2.2,2.7c0.6,1.2,0.9,2.4,0.8,3.5
		c0,1.1-0.3,2.2-0.9,3c-0.6,0.9-1.3,1.5-2.2,2c-0.9,0.4-1.8,0.6-2.8,0.6c-1,0-1.9-0.3-2.8-0.9c-0.9-0.6-1.6-1.4-2.1-2.5
		C15.6,10,15.6,9.8,15.6,9.6z M24.7,9.6c0.4-0.9,0.5-2,0.2-3.2L17.3,10l0.1,0.2c0.4,0.6,0.9,1.1,1.5,1.4c0.6,0.3,1.2,0.5,1.9,0.4
		c0.7,0,1.3-0.2,1.9-0.4C23.6,11.2,24.2,10.5,24.7,9.6z"/>
</g>
<path id="Path_96_1_" class="st2" d="M11.4,11.1c0,0,1.2-1.1,2.2-3.9s2-3.9,2-3.9"/>
<g>
</g>
<g>
</g>
<g>
</g>
<g>
</g>
<g>
</g>
<g>
</g>
</svg>
