<?xml version="1.0" encoding="utf-8"?>
<!-- Generator: Adobe Illustrator 21.0.2, SVG Export Plug-In . SVG Version: 6.00 Build 0)  -->
<svg version="1.1" id="Layer_1" xmlns="http://www.w3.org/2000/svg" xmlns:xlink="http://www.w3.org/1999/xlink" x="0px" y="0px"
	 viewBox="0 0 194 79" style="enable-background:new 0 0 194 79;" xml:space="preserve">
<style type="text/css">
	.st0{enable-background:new    ;}
	.st1{fill:#8BC34A;stroke:#8BC34A;stroke-width:4.5;stroke-miterlimit:10;}
	.st2{fill:#03A9F4;stroke:#03A9F4;stroke-width:4;stroke-miterlimit:10;}
	.st3{fill:none;stroke:#8BC34A;stroke-width:8;stroke-linecap:round;stroke-miterlimit:10;}
</style>
<g class="st0">
	<path class="st1" d="M119.3,27.6c-0.2,0.6-0.6,1-1.1,1.2L93.4,40.9c1.3,2.6,3,4.7,5.1,6.3c2.1,1.6,4.4,2.4,7,2.7
		c2.6,0.2,5.3-0.2,7.9-1.6c5.5-2.9,9.4-10.9,9.9-10.7c0.5,0.2,0.9,0.5,1.1,0.9c0.2,0.5,0.2,1,0,1.7c-0.6,2.4-1.6,4.6-3.2,6.8
		s-3.6,3.8-5.9,4.9c-3.4,1.6-6.7,2.4-10,2.2c-3.3-0.2-6.3-1.2-9-3.1c-2.7-1.9-4.9-4.5-6.6-8c-1.8-3.6-2.6-7.1-2.5-10.5
		c0.1-3.4,1-6.4,2.7-8.9c1.7-2.6,3.8-4.5,6.5-5.8c2.6-1.3,5.4-1.9,8.3-1.8c2.9,0.1,5.6,1,8.2,2.6c2.6,1.7,4.7,4.1,6.3,7.3
		C119.5,26.5,119.5,27,119.3,27.6z M92.5,27.7c-1.3,2.8-1.5,6-0.5,9.6l22.4-10.9l-0.3-0.5c-1.2-1.9-2.7-3.3-4.5-4.2
		c-1.8-0.9-3.7-1.4-5.7-1.3c-2,0-3.9,0.5-5.6,1.3C95.7,22.8,93.8,24.9,92.5,27.7z"/>
</g>
<g class="st0">
	<path class="st2" d="M6.5,11.3c-0.5-0.5-0.8-1.1-0.8-2V8.6c0-0.9,0.3-1.5,0.8-2c0.6-0.5,1.3-0.7,2.3-0.7c1.9,0,2.9,0.9,2.9,2.7v0.7
		c0,0.9-0.3,1.5-0.8,2C10.4,11.8,9.7,12,8.7,12C7.7,12,7,11.8,6.5,11.3z M10.3,53.6c-0.4,0.4-0.9,0.6-1.5,0.6
		c-0.6,0-1.1-0.2-1.5-0.6c-0.4-0.4-0.6-0.9-0.6-1.5V19c0-0.6,0.2-1.1,0.6-1.5c0.4-0.4,0.9-0.6,1.5-0.6c0.6,0,1.1,0.2,1.5,0.6
		c0.4,0.4,0.6,0.9,0.6,1.5v33.1C10.9,52.7,10.7,53.2,10.3,53.6z"/>
	<path class="st2" d="M49.3,20.5c2.1,2.6,3.1,6.1,3.1,10.4v21.2c0,0.6-0.2,1.1-0.6,1.5c-0.4,0.4-0.9,0.6-1.5,0.6
		c-0.6,0-1.1-0.2-1.5-0.6c-0.4-0.4-0.6-0.9-0.6-1.5v-21c0-3.1-0.8-5.7-2.3-7.6c-1.6-1.9-4-2.9-7.2-2.9c-2.1,0-4,0.5-5.9,1.4
		c-1.8,1-3.3,2.2-4.5,3.9c-1.2,1.6-1.7,3.3-1.7,5.2v21c0,0.6-0.2,1.1-0.6,1.5c-0.4,0.4-0.9,0.6-1.5,0.6c-0.6,0-1.1-0.2-1.5-0.6
		c-0.4-0.4-0.6-0.9-0.6-1.5V19.8c0-0.6,0.2-1.1,0.6-1.5c0.4-0.4,0.9-0.6,1.5-0.6c0.6,0,1.1,0.2,1.5,0.6c0.4,0.4,0.6,0.9,0.6,1.5v4
		c1.3-2.1,3.2-3.8,5.6-5.1c2.4-1.4,4.9-2.1,7.5-2.1C43.9,16.6,47.2,17.9,49.3,20.5z"/>
	<path class="st2" d="M70.9,21.6v24.1c0,1.8,0.3,3.1,1,3.7c0.7,0.6,1.6,1,2.7,1c0.3,0,0.6-0.1,1.1-0.2c0.4-0.1,0.8-0.2,1-0.2
		c0.4,0,0.8,0.2,1.1,0.5c0.3,0.4,0.5,0.8,0.5,1.3c0,0.7-0.4,1.2-1.2,1.7c-0.8,0.5-1.7,0.7-2.7,0.7c-1.3,0-2.4-0.1-3.5-0.4
		c-1-0.2-2-1-2.9-2.2s-1.4-3.1-1.4-5.8V21.6h-5.3c-0.6,0-1.1-0.2-1.5-0.6c-0.4-0.4-0.6-0.9-0.6-1.4s0.2-1.1,0.6-1.4
		c0.4-0.4,0.9-0.6,1.5-0.6h5.3v-8c0-0.6,0.2-1.1,0.6-1.5c0.4-0.4,0.9-0.6,1.5-0.6c0.6,0,1.1,0.2,1.5,0.6c0.4,0.4,0.6,0.9,0.6,1.5v8
		h7.2c0.5,0,1,0.2,1.4,0.6c0.4,0.4,0.6,0.9,0.6,1.4c0,0.6-0.2,1-0.6,1.4c-0.4,0.4-0.9,0.5-1.4,0.5H70.9z"/>
</g>
<g class="st0">
	<path class="st2" d="M190.5,16.8c0.8,0.4,1.2,1,1.2,1.7c0,0.7-0.2,1.2-0.6,1.6c-0.4,0.4-0.8,0.6-1.4,0.6c-0.2,0-0.7-0.1-1.4-0.4
		c-0.7-0.2-1.4-0.4-2-0.4c-1.8,0-3.5,0.7-5.3,2.1c-1.8,1.4-3.2,3.1-4.3,5.3c-1.1,2.2-1.7,4.3-1.7,6.6v17.8c0,0.6-0.2,1.1-0.6,1.5
		c-0.4,0.4-0.9,0.6-1.5,0.6c-0.6,0-1.1-0.2-1.5-0.6c-0.4-0.4-0.6-0.9-0.6-1.5V19.5c0-0.6,0.2-1.1,0.6-1.5c0.4-0.4,0.9-0.6,1.5-0.6
		c0.6,0,1.1,0.2,1.5,0.6c0.4,0.4,0.6,0.9,0.6,1.5v6.3c1.1-2.7,2.8-5,5-6.8c2.2-1.8,4.9-2.7,7.9-2.8
		C188.8,16.3,189.7,16.5,190.5,16.8z"/>
</g>
<g id="Layer_3">
	<g class="st0">
		<path d="M5.5,63.5c-0.1-0.1-0.2-0.2-0.2-0.4v-0.1c0-0.2,0.1-0.3,0.2-0.4c0.1-0.1,0.3-0.1,0.5-0.1c0.4,0,0.6,0.2,0.6,0.6v0.1
			c0,0.2-0.1,0.3-0.2,0.4c-0.1,0.1-0.3,0.1-0.5,0.1C5.8,63.6,5.6,63.6,5.5,63.5z M6.3,72.3c-0.1,0.1-0.2,0.1-0.3,0.1s-0.2,0-0.3-0.1
			c-0.1-0.1-0.1-0.2-0.1-0.3v-6.9c0-0.1,0-0.2,0.1-0.3c0.1-0.1,0.2-0.1,0.3-0.1s0.2,0,0.3,0.1c0.1,0.1,0.1,0.2,0.1,0.3V72
			C6.4,72.1,6.4,72.2,6.3,72.3z"/>
	</g>
	<g class="st0">
		<path d="M14.4,65.4c0.4,0.5,0.7,1.3,0.7,2.2V72c0,0.1,0,0.2-0.1,0.3c-0.1,0.1-0.2,0.1-0.3,0.1c-0.1,0-0.2,0-0.3-0.1
			c-0.1-0.1-0.1-0.2-0.1-0.3v-4.4c0-0.6-0.2-1.2-0.5-1.6c-0.3-0.4-0.8-0.6-1.5-0.6c-0.4,0-0.8,0.1-1.2,0.3c-0.4,0.2-0.7,0.5-0.9,0.8
			c-0.2,0.3-0.4,0.7-0.4,1.1V72c0,0.1,0,0.2-0.1,0.3c-0.1,0.1-0.2,0.1-0.3,0.1s-0.2,0-0.3-0.1c-0.1-0.1-0.1-0.2-0.1-0.3v-6.7
			c0-0.1,0-0.2,0.1-0.3c0.1-0.1,0.2-0.1,0.3-0.1s0.2,0,0.3,0.1c0.1,0.1,0.1,0.2,0.1,0.3v0.8c0.3-0.4,0.7-0.8,1.2-1.1
			c0.5-0.3,1-0.4,1.6-0.4C13.3,64.6,14,64.9,14.4,65.4z"/>
		<path d="M23.3,64.7c0.1,0.1,0.1,0.2,0.1,0.3c0,0.1,0,0.2-0.1,0.3l-2.9,6.9c0,0.1-0.1,0.1-0.2,0.2c-0.1,0.1-0.2,0.1-0.2,0.1
			c-0.1,0-0.2,0-0.3-0.1c-0.1-0.1-0.1-0.1-0.2-0.2l-3-6.9c0,0,0-0.1,0-0.1c0,0,0-0.1,0-0.1c0-0.1,0-0.2,0.1-0.3
			c0.1-0.1,0.2-0.1,0.3-0.1c0.1,0,0.2,0,0.2,0.1s0.1,0.1,0.2,0.2L20,71l2.6-6.1c0-0.1,0.1-0.2,0.2-0.2s0.2-0.1,0.3-0.1
			C23.1,64.6,23.2,64.6,23.3,64.7z"/>
	</g>
	<g class="st0">
		<path d="M31.6,70.6c-0.3,0.6-0.8,1.1-1.4,1.4c-0.6,0.3-1.2,0.5-1.9,0.5s-1.4-0.2-1.9-0.5c-0.6-0.3-1-0.8-1.4-1.4
			c-0.3-0.6-0.5-1.3-0.5-2s0.2-1.4,0.5-2c0.3-0.6,0.8-1.1,1.4-1.4c0.6-0.3,1.2-0.5,1.9-0.5s1.4,0.2,1.9,0.5s1,0.8,1.4,1.4
			c0.3,0.6,0.5,1.3,0.5,2S31.9,70,31.6,70.6z M30.8,67c-0.3-0.5-0.6-0.9-1-1.1c-0.4-0.3-0.9-0.4-1.5-0.4s-1,0.1-1.5,0.4
			c-0.4,0.3-0.8,0.7-1,1.1s-0.4,1-0.4,1.6c0,0.6,0.1,1.1,0.4,1.6c0.3,0.5,0.6,0.9,1,1.1c0.4,0.3,0.9,0.4,1.5,0.4s1-0.1,1.5-0.4
			s0.8-0.6,1-1.1c0.2-0.5,0.4-1,0.4-1.6C31.2,68,31,67.4,30.8,67z"/>
	</g>
	<g class="st0">
		<path d="M34.8,72.3c-0.1,0.1-0.2,0.1-0.3,0.1c-0.1,0-0.2,0-0.3-0.1C34,72.2,34,72.1,34,72V61.8c0-0.1,0-0.2,0.1-0.3
			c0.1-0.1,0.2-0.1,0.3-0.1c0.1,0,0.2,0,0.3,0.1c0.1,0.1,0.1,0.2,0.1,0.3V72C34.9,72.1,34.8,72.2,34.8,72.3z"/>
	</g>
	<g class="st0">
		<path d="M43,64.7c0.1,0.1,0.1,0.2,0.1,0.3c0,0.1,0,0.2-0.1,0.3l-2.9,6.9c0,0.1-0.1,0.1-0.2,0.2c-0.1,0.1-0.2,0.1-0.2,0.1
			c-0.1,0-0.2,0-0.3-0.1c-0.1-0.1-0.1-0.1-0.2-0.2l-3-6.9c0,0,0-0.1,0-0.1s0-0.1,0-0.1c0-0.1,0-0.2,0.1-0.3c0.1-0.1,0.2-0.1,0.3-0.1
			c0.1,0,0.2,0,0.2,0.1c0.1,0.1,0.1,0.1,0.2,0.2l2.6,6.1l2.6-6.1c0-0.1,0.1-0.2,0.2-0.2c0.1-0.1,0.2-0.1,0.3-0.1
			C42.8,64.6,42.9,64.6,43,64.7z"/>
		<path d="M51.1,68.5c-0.1,0.1-0.2,0.1-0.3,0.1h-5.7c0,0.6,0.1,1.1,0.4,1.6c0.2,0.5,0.6,0.9,1,1.1c0.5,0.3,1,0.4,1.6,0.4
			c0.5,0,0.9-0.1,1.3-0.3c0.4-0.2,0.7-0.5,0.9-0.8c0.1-0.1,0.2-0.1,0.3-0.1c0.1,0,0.2,0,0.3,0.1c0.1,0.1,0.1,0.2,0.1,0.3
			c0,0.1,0,0.2-0.1,0.3c-0.3,0.4-0.7,0.7-1.2,1c-0.5,0.2-1,0.4-1.5,0.4c-0.8,0-1.4-0.2-2-0.5c-0.6-0.3-1-0.8-1.4-1.4
			c-0.3-0.6-0.5-1.3-0.5-2.1c0-0.8,0.2-1.5,0.5-2.2c0.3-0.6,0.8-1.1,1.3-1.4c0.5-0.3,1.1-0.5,1.7-0.5c0.6,0,1.2,0.1,1.7,0.4
			c0.5,0.3,1,0.7,1.3,1.2c0.3,0.5,0.5,1.2,0.5,1.9C51.2,68.3,51.2,68.4,51.1,68.5z M46.1,66.1c-0.5,0.4-0.8,1-1,1.7h5.1v-0.1
			c0-0.5-0.2-0.8-0.4-1.2c-0.3-0.3-0.6-0.6-0.9-0.8s-0.8-0.3-1.2-0.3C47.2,65.5,46.6,65.7,46.1,66.1z"/>
		<path d="M57,68.5c-0.1-0.1-0.2-0.2-0.2-0.4v-0.3c0-0.2,0.1-0.3,0.2-0.4s0.2-0.2,0.4-0.2h0.1c0.2,0,0.3,0.1,0.4,0.2
			c0.1,0.1,0.2,0.2,0.2,0.4v0.3c0,0.2-0.1,0.3-0.2,0.4c-0.1,0.1-0.2,0.2-0.4,0.2h-0.1C57.2,68.7,57.1,68.6,57,68.5z"/>
		<path d="M70.6,68.5c-0.1,0.1-0.2,0.1-0.3,0.1h-5.7c0,0.6,0.1,1.1,0.4,1.6c0.2,0.5,0.6,0.9,1,1.1c0.5,0.3,1,0.4,1.6,0.4
			c0.5,0,0.9-0.1,1.3-0.3c0.4-0.2,0.7-0.5,0.9-0.8c0.1-0.1,0.2-0.1,0.3-0.1c0.1,0,0.2,0,0.3,0.1c0.1,0.1,0.1,0.2,0.1,0.3
			c0,0.1,0,0.2-0.1,0.3c-0.3,0.4-0.7,0.7-1.2,1c-0.5,0.2-1,0.4-1.5,0.4c-0.8,0-1.4-0.2-2-0.5c-0.6-0.3-1-0.8-1.4-1.4
			c-0.3-0.6-0.5-1.3-0.5-2.1c0-0.8,0.2-1.5,0.5-2.2c0.3-0.6,0.8-1.1,1.3-1.4c0.5-0.3,1.1-0.5,1.7-0.5c0.6,0,1.2,0.1,1.7,0.4
			c0.5,0.3,1,0.7,1.3,1.2c0.3,0.5,0.5,1.2,0.5,1.9C70.7,68.3,70.6,68.4,70.6,68.5z M65.6,66.1c-0.5,0.4-0.8,1-1,1.7h5.1v-0.1
			c0-0.5-0.2-0.8-0.4-1.2c-0.3-0.3-0.6-0.6-0.9-0.8s-0.8-0.3-1.2-0.3C66.6,65.5,66.1,65.7,65.6,66.1z"/>
		<path d="M78.2,65.4c0.4,0.5,0.7,1.3,0.7,2.2V72c0,0.1,0,0.2-0.1,0.3c-0.1,0.1-0.2,0.1-0.3,0.1c-0.1,0-0.2,0-0.3-0.1
			C78,72.2,78,72.1,78,72v-4.4c0-0.6-0.2-1.2-0.5-1.6c-0.3-0.4-0.8-0.6-1.5-0.6c-0.4,0-0.8,0.1-1.2,0.3c-0.4,0.2-0.7,0.5-0.9,0.8
			c-0.2,0.3-0.4,0.7-0.4,1.1V72c0,0.1,0,0.2-0.1,0.3c-0.1,0.1-0.2,0.1-0.3,0.1s-0.2,0-0.3-0.1c-0.1-0.1-0.1-0.2-0.1-0.3v-6.7
			c0-0.1,0-0.2,0.1-0.3c0.1-0.1,0.2-0.1,0.3-0.1s0.2,0,0.3,0.1c0.1,0.1,0.1,0.2,0.1,0.3v0.8c0.3-0.4,0.7-0.8,1.2-1.1
			c0.5-0.3,1-0.4,1.6-0.4C77.1,64.6,77.8,64.9,78.2,65.4z"/>
		<path d="M88,64.9c0.1,0.1,0.1,0.2,0.1,0.3v6.5c0,0.8-0.2,1.4-0.5,2c-0.3,0.6-0.8,1-1.3,1.3c-0.6,0.3-1.2,0.4-1.9,0.4
			c-0.4,0-0.7,0-1.1-0.1c-0.4-0.1-0.7-0.2-1-0.3s-0.4-0.3-0.5-0.4c-0.1-0.1-0.1-0.2-0.1-0.2c0-0.1,0-0.2,0.1-0.2c0,0,0.1,0,0.1,0
			s0.2,0,0.3,0.1l0.3,0.1c0.6,0.2,1.2,0.4,1.7,0.4c0.9,0,1.6-0.3,2.1-0.8c0.5-0.5,0.8-1.2,0.8-2v-0.9c-0.3,0.5-0.6,1-1.2,1.3
			c-0.5,0.3-1.1,0.5-1.7,0.5c-0.7,0-1.3-0.2-1.9-0.5c-0.6-0.3-1-0.8-1.3-1.4c-0.3-0.6-0.5-1.3-0.5-2.1c0-0.8,0.2-1.4,0.5-2
			c0.3-0.6,0.8-1.1,1.3-1.4c0.6-0.3,1.2-0.5,1.9-0.5c0.6,0,1.2,0.2,1.7,0.5c0.5,0.3,0.9,0.7,1.2,1.1v-1c0-0.1,0-0.2,0.1-0.3
			s0.2-0.1,0.3-0.1S87.9,64.8,88,64.9z M85.9,71.3c0.4-0.3,0.8-0.6,1-1.1c0.2-0.5,0.4-1,0.4-1.6s-0.1-1.2-0.4-1.6
			c-0.2-0.5-0.6-0.9-1-1.1c-0.4-0.3-0.9-0.4-1.5-0.4c-0.5,0-1,0.1-1.5,0.4c-0.4,0.3-0.8,0.7-1,1.1c-0.2,0.5-0.4,1-0.4,1.6
			c0,0.6,0.1,1.1,0.4,1.6c0.2,0.5,0.6,0.9,1,1.1c0.4,0.3,0.9,0.4,1.5,0.4C85,71.7,85.5,71.6,85.9,71.3z"/>
		<path d="M97,64.9c0.1,0.1,0.1,0.2,0.1,0.3V72c0,0.1,0,0.2-0.1,0.3c-0.1,0.1-0.2,0.1-0.3,0.1c-0.1,0-0.2,0-0.3-0.1
			c-0.1-0.1-0.1-0.2-0.1-0.3v-1c-0.3,0.4-0.6,0.8-1.1,1.1c-0.5,0.3-1,0.5-1.6,0.5c-0.7,0-1.3-0.2-1.8-0.5c-0.5-0.3-1-0.8-1.3-1.4
			c-0.3-0.6-0.5-1.3-0.5-2.1s0.2-1.4,0.5-2c0.3-0.6,0.7-1.1,1.3-1.4c0.5-0.3,1.1-0.5,1.8-0.5c0.6,0,1.1,0.1,1.6,0.4
			c0.5,0.3,0.9,0.7,1.1,1.1v-0.9c0-0.1,0-0.2,0.1-0.3s0.2-0.1,0.3-0.1C96.8,64.8,96.9,64.8,97,64.9z M95,71.3c0.4-0.3,0.7-0.7,1-1.1
			c0.2-0.5,0.4-1,0.4-1.6c0-0.6-0.1-1.1-0.4-1.6s-0.6-0.9-1-1.1c-0.4-0.3-0.9-0.4-1.4-0.4s-1,0.1-1.4,0.4c-0.4,0.3-0.7,0.6-1,1.1
			c-0.2,0.5-0.4,1-0.4,1.6c0,0.6,0.1,1.1,0.3,1.6c0.2,0.5,0.6,0.9,1,1.1c0.4,0.3,0.9,0.4,1.4,0.4C94.1,71.7,94.5,71.6,95,71.3z"/>
	</g>
	<g class="st0">
		<path d="M106.3,64.9c0.1,0.1,0.1,0.2,0.1,0.3v6.5c0,0.8-0.2,1.4-0.5,2c-0.3,0.6-0.8,1-1.3,1.3c-0.6,0.3-1.2,0.4-1.9,0.4
			c-0.4,0-0.7,0-1.1-0.1c-0.4-0.1-0.7-0.2-1-0.3s-0.4-0.3-0.5-0.4c-0.1-0.1-0.1-0.2-0.1-0.2c0-0.1,0-0.2,0.1-0.2c0,0,0.1,0,0.1,0
			s0.2,0,0.3,0.1l0.3,0.1c0.6,0.2,1.2,0.4,1.7,0.4c0.9,0,1.6-0.3,2.1-0.8c0.5-0.5,0.8-1.2,0.8-2v-0.9c-0.3,0.5-0.6,1-1.2,1.3
			c-0.5,0.3-1.1,0.5-1.7,0.5c-0.7,0-1.3-0.2-1.9-0.5c-0.6-0.3-1-0.8-1.3-1.4C99.1,70,99,69.3,99,68.6c0-0.8,0.2-1.4,0.5-2
			c0.3-0.6,0.8-1.1,1.3-1.4c0.6-0.3,1.2-0.5,1.9-0.5c0.6,0,1.2,0.2,1.7,0.5c0.5,0.3,0.9,0.7,1.2,1.1v-1c0-0.1,0-0.2,0.1-0.3
			s0.2-0.1,0.3-0.1S106.2,64.8,106.3,64.9z M104.2,71.3c0.4-0.3,0.8-0.6,1-1.1c0.2-0.5,0.4-1,0.4-1.6s-0.1-1.2-0.4-1.6
			c-0.2-0.5-0.6-0.9-1-1.1c-0.4-0.3-0.9-0.4-1.5-0.4c-0.5,0-1,0.1-1.5,0.4c-0.4,0.3-0.8,0.7-1,1.1c-0.2,0.5-0.4,1-0.4,1.6
			c0,0.6,0.1,1.1,0.4,1.6c0.2,0.5,0.6,0.9,1,1.1c0.4,0.3,0.9,0.4,1.5,0.4C103.3,71.7,103.7,71.6,104.2,71.3z"/>
	</g>
	<g class="st0">
		<path d="M114.8,68.5c-0.1,0.1-0.2,0.1-0.3,0.1h-5.7c0,0.6,0.1,1.1,0.4,1.6c0.2,0.5,0.6,0.9,1,1.1c0.5,0.3,1,0.4,1.6,0.4
			c0.5,0,0.9-0.1,1.3-0.3c0.4-0.2,0.7-0.5,0.9-0.8c0.1-0.1,0.2-0.1,0.3-0.1c0.1,0,0.2,0,0.3,0.1c0.1,0.1,0.1,0.2,0.1,0.3
			c0,0.1,0,0.2-0.1,0.3c-0.3,0.4-0.7,0.7-1.2,1c-0.5,0.2-1,0.4-1.5,0.4c-0.8,0-1.4-0.2-2-0.5c-0.6-0.3-1-0.8-1.4-1.4
			c-0.3-0.6-0.5-1.3-0.5-2.1c0-0.8,0.2-1.5,0.5-2.2c0.3-0.6,0.8-1.1,1.3-1.4c0.5-0.3,1.1-0.5,1.7-0.5c0.6,0,1.2,0.1,1.7,0.4
			c0.5,0.3,1,0.7,1.3,1.2c0.3,0.5,0.5,1.2,0.5,1.9C115,68.3,114.9,68.4,114.8,68.5z M109.9,66.1c-0.5,0.4-0.8,1-1,1.7h5.1v-0.1
			c0-0.5-0.2-0.8-0.4-1.2c-0.3-0.3-0.6-0.6-0.9-0.8s-0.8-0.3-1.2-0.3C110.9,65.5,110.4,65.7,109.9,66.1z"/>
		<path d="M120.7,68.5c-0.1-0.1-0.2-0.2-0.2-0.4v-0.3c0-0.2,0.1-0.3,0.2-0.4s0.2-0.2,0.4-0.2h0.1c0.2,0,0.3,0.1,0.4,0.2
			s0.2,0.2,0.2,0.4v0.3c0,0.2-0.1,0.3-0.2,0.4c-0.1,0.1-0.2,0.2-0.4,0.2h-0.1C121,68.7,120.8,68.6,120.7,68.5z"/>
	</g>
	<g class="st0">
		<path d="M134,64.7c0.1,0.1,0.1,0.2,0.1,0.3c0,0.1,0,0.2-0.1,0.3l-2.9,6.9c0,0.1-0.1,0.1-0.2,0.2c-0.1,0.1-0.2,0.1-0.2,0.1
			c-0.1,0-0.2,0-0.3-0.1s-0.1-0.1-0.2-0.2l-3-6.9c0,0,0-0.1,0-0.1c0,0,0-0.1,0-0.1c0-0.1,0-0.2,0.1-0.3c0.1-0.1,0.2-0.1,0.3-0.1
			c0.1,0,0.2,0,0.2,0.1s0.1,0.1,0.2,0.2l2.5,6.1l2.6-6.1c0-0.1,0.1-0.2,0.2-0.2c0.1-0.1,0.2-0.1,0.3-0.1
			C133.8,64.6,133.9,64.6,134,64.7z"/>
	</g>
	<g class="st0">
		<path d="M142.3,70.6c-0.3,0.6-0.8,1.1-1.4,1.4c-0.6,0.3-1.2,0.5-1.9,0.5c-0.7,0-1.4-0.2-1.9-0.5c-0.6-0.3-1-0.8-1.4-1.4
			c-0.3-0.6-0.5-1.3-0.5-2s0.2-1.4,0.5-2c0.3-0.6,0.8-1.1,1.4-1.4s1.2-0.5,1.9-0.5c0.7,0,1.4,0.2,1.9,0.5s1,0.8,1.4,1.4
			c0.3,0.6,0.5,1.3,0.5,2S142.6,70,142.3,70.6z M141.5,67c-0.3-0.5-0.6-0.9-1-1.1c-0.4-0.3-0.9-0.4-1.5-0.4c-0.5,0-1,0.1-1.5,0.4
			c-0.4,0.3-0.8,0.7-1,1.1s-0.4,1-0.4,1.6c0,0.6,0.1,1.1,0.4,1.6c0.3,0.5,0.6,0.9,1,1.1c0.4,0.3,0.9,0.4,1.5,0.4
			c0.5,0,1-0.1,1.5-0.4c0.4-0.3,0.8-0.6,1-1.1s0.4-1,0.4-1.6C141.9,68,141.8,67.4,141.5,67z"/>
		<path d="M145.5,72.3c-0.1,0.1-0.2,0.1-0.3,0.1c-0.1,0-0.2,0-0.3-0.1c-0.1-0.1-0.1-0.2-0.1-0.3V61.8c0-0.1,0-0.2,0.1-0.3
			c0.1-0.1,0.2-0.1,0.3-0.1c0.1,0,0.2,0,0.3,0.1c0.1,0.1,0.1,0.2,0.1,0.3V72C145.6,72.1,145.6,72.2,145.5,72.3z"/>
		<path d="M154.1,64.9c0.1,0.1,0.1,0.2,0.1,0.3v4.2c0,1-0.3,1.7-0.8,2.3c-0.5,0.5-1.3,0.8-2.3,0.8c-1,0-1.7-0.3-2.3-0.8
			c-0.5-0.5-0.8-1.3-0.8-2.3v-4.2c0-0.1,0-0.2,0.1-0.3c0.1-0.1,0.2-0.1,0.3-0.1s0.2,0,0.3,0.1c0.1,0.1,0.1,0.2,0.1,0.3v4.2
			c0,0.7,0.2,1.3,0.6,1.6s0.9,0.6,1.6,0.6c0.7,0,1.2-0.2,1.6-0.6s0.6-0.9,0.6-1.6v-4.2c0-0.1,0-0.2,0.1-0.3c0.1-0.1,0.2-0.1,0.3-0.1
			S154,64.9,154.1,64.9z"/>
		<path d="M162.2,65.4c0.4,0.5,0.7,1.3,0.7,2.2V72c0,0.1,0,0.2-0.1,0.3c-0.1,0.1-0.2,0.1-0.3,0.1c-0.1,0-0.2,0-0.3-0.1
			c-0.1-0.1-0.1-0.2-0.1-0.3v-4.4c0-0.6-0.2-1.2-0.5-1.6c-0.3-0.4-0.8-0.6-1.5-0.6c-0.4,0-0.8,0.1-1.2,0.3c-0.4,0.2-0.7,0.5-0.9,0.8
			c-0.2,0.3-0.4,0.7-0.4,1.1V72c0,0.1,0,0.2-0.1,0.3c-0.1,0.1-0.2,0.1-0.3,0.1s-0.2,0-0.3-0.1c-0.1-0.1-0.1-0.2-0.1-0.3v-6.7
			c0-0.1,0-0.2,0.1-0.3c0.1-0.1,0.2-0.1,0.3-0.1s0.2,0,0.3,0.1c0.1,0.1,0.1,0.2,0.1,0.3v0.8c0.3-0.4,0.7-0.8,1.2-1.1s1-0.4,1.6-0.4
			C161.1,64.6,161.8,64.9,162.2,65.4z"/>
	</g>
	<g class="st0">
		<path d="M166.7,65.6v5c0,0.4,0.1,0.6,0.2,0.8c0.1,0.1,0.3,0.2,0.6,0.2c0.1,0,0.1,0,0.2,0c0.1,0,0.2,0,0.2,0c0.1,0,0.2,0,0.2,0.1
			s0.1,0.2,0.1,0.3c0,0.1-0.1,0.3-0.2,0.4s-0.3,0.1-0.6,0.1c-0.3,0-0.5,0-0.7-0.1c-0.2,0-0.4-0.2-0.6-0.4s-0.3-0.7-0.3-1.2v-5.1
			h-1.1c-0.1,0-0.2,0-0.3-0.1s-0.1-0.2-0.1-0.3c0-0.1,0-0.2,0.1-0.3s0.2-0.1,0.3-0.1h1.1v-1.7c0-0.1,0-0.2,0.1-0.3
			c0.1-0.1,0.2-0.1,0.3-0.1s0.2,0,0.3,0.1c0.1,0.1,0.1,0.2,0.1,0.3v1.7h1.5c0.1,0,0.2,0,0.3,0.1s0.1,0.2,0.1,0.3
			c0,0.1,0,0.2-0.1,0.3c-0.1,0.1-0.2,0.1-0.3,0.1H166.7z"/>
	</g>
	<g class="st0">
		<path d="M176.5,68.5c-0.1,0.1-0.2,0.1-0.3,0.1h-5.7c0,0.6,0.1,1.1,0.4,1.6c0.2,0.5,0.6,0.9,1.1,1.1c0.5,0.3,1,0.4,1.6,0.4
			c0.5,0,0.9-0.1,1.3-0.3c0.4-0.2,0.7-0.5,0.9-0.8c0.1-0.1,0.2-0.1,0.3-0.1c0.1,0,0.2,0,0.3,0.1s0.1,0.2,0.1,0.3
			c0,0.1,0,0.2-0.1,0.3c-0.3,0.4-0.7,0.7-1.2,1c-0.5,0.2-1,0.4-1.5,0.4c-0.8,0-1.4-0.2-2-0.5c-0.6-0.3-1-0.8-1.4-1.4
			c-0.3-0.6-0.5-1.3-0.5-2.1c0-0.8,0.2-1.5,0.5-2.2c0.3-0.6,0.8-1.1,1.3-1.4c0.5-0.3,1.1-0.5,1.7-0.5c0.6,0,1.2,0.1,1.7,0.4
			c0.5,0.3,1,0.7,1.3,1.2c0.3,0.5,0.5,1.2,0.5,1.9C176.6,68.3,176.6,68.4,176.5,68.5z M171.5,66.1c-0.5,0.4-0.8,1-1,1.7h5.1v-0.1
			c0-0.5-0.2-0.8-0.4-1.2c-0.3-0.3-0.6-0.6-0.9-0.8s-0.8-0.3-1.2-0.3C172.6,65.5,172,65.7,171.5,66.1z"/>
		<path d="M184.8,68.5c-0.1,0.1-0.2,0.1-0.3,0.1h-5.7c0,0.6,0.1,1.1,0.4,1.6c0.2,0.5,0.6,0.9,1.1,1.1c0.5,0.3,1,0.4,1.6,0.4
			c0.5,0,0.9-0.1,1.3-0.3c0.4-0.2,0.7-0.5,0.9-0.8c0.1-0.1,0.2-0.1,0.3-0.1c0.1,0,0.2,0,0.3,0.1s0.1,0.2,0.1,0.3
			c0,0.1,0,0.2-0.1,0.3c-0.3,0.4-0.7,0.7-1.2,1c-0.5,0.2-1,0.4-1.5,0.4c-0.8,0-1.4-0.2-2-0.5c-0.6-0.3-1-0.8-1.4-1.4
			c-0.3-0.6-0.5-1.3-0.5-2.1c0-0.8,0.2-1.5,0.5-2.2c0.3-0.6,0.8-1.1,1.3-1.4c0.5-0.3,1.1-0.5,1.7-0.5c0.6,0,1.2,0.1,1.7,0.4
			c0.5,0.3,1,0.7,1.3,1.2c0.3,0.5,0.5,1.2,0.5,1.9C185,68.3,184.9,68.4,184.8,68.5z M179.9,66.1c-0.5,0.4-0.8,1-1,1.7h5.1v-0.1
			c0-0.5-0.2-0.8-0.4-1.2c-0.3-0.3-0.6-0.6-0.9-0.8s-0.8-0.3-1.2-0.3C180.9,65.5,180.4,65.7,179.9,66.1z"/>
		<path d="M191,64.7c0.2,0.1,0.2,0.2,0.2,0.4c0,0.1,0,0.3-0.1,0.3c-0.1,0.1-0.2,0.1-0.3,0.1c0,0-0.1,0-0.3-0.1
			c-0.1-0.1-0.3-0.1-0.4-0.1c-0.4,0-0.7,0.1-1.1,0.4s-0.7,0.7-0.9,1.1c-0.2,0.4-0.4,0.9-0.4,1.4V72c0,0.1,0,0.2-0.1,0.3
			c-0.1,0.1-0.2,0.1-0.3,0.1c-0.1,0-0.2,0-0.3-0.1c-0.1-0.1-0.1-0.2-0.1-0.3v-6.7c0-0.1,0-0.2,0.1-0.3c0.1-0.1,0.2-0.1,0.3-0.1
			c0.1,0,0.2,0,0.3,0.1c0.1,0.1,0.1,0.2,0.1,0.3v1.3c0.2-0.6,0.6-1,1-1.4s1-0.6,1.6-0.6C190.6,64.6,190.8,64.6,191,64.7z"/>
	</g>
</g>
<g class="st0">
	<path class="st1" d="M131.4,41.5c0.2-0.6,0.6-1,1.1-1.2l24.8-12.1c-1.3-2.6-3-4.7-5.1-6.3c-2.1-1.6-4.4-2.3-7-2.7
		c-3.5-0.5-6.2,0.4-8.2,1.3c-5.1,2.4-9.1,11.2-9.7,11c-0.5-0.2-0.9-0.5-1.1-0.9c-0.2-0.5-0.2-1,0-1.7c0.6-2.4,1.6-4.6,3.2-6.8
		c1.6-2.1,3.6-3.8,5.9-4.9c3.4-1.6,6.7-2.4,10-2.2c3.3,0.2,6.3,1.2,9,3.1c2.7,1.9,4.9,4.5,6.6,8c1.8,3.6,2.6,7.1,2.5,10.5
		c-0.1,3.4-1,6.4-2.7,8.9c-1.7,2.6-3.8,4.5-6.5,5.8c-2.6,1.3-5.4,1.9-8.3,1.8c-2.9-0.1-5.6-1-8.2-2.6c-2.6-1.7-4.7-4.1-6.3-7.3
		C131.2,42.6,131.2,42,131.4,41.5z M158.2,41.4c1.3-2.8,1.5-6,0.5-9.6l-22.4,10.9l0.3,0.5c1.2,1.9,2.7,3.3,4.5,4.2
		c1.8,0.9,3.7,1.4,5.7,1.3c2,0,3.9-0.5,5.6-1.3C155,46.2,156.9,44.2,158.2,41.4z"/>
</g>
<path id="Path_96" class="st3" d="M118.9,46c0,0,3.7-3.2,6.4-11.5c2.8-8.3,5.8-11.6,5.8-11.6"/>
<g>
</g>
<g>
</g>
<g>
</g>
<g>
</g>
<g>
</g>
<g>
</g>
</svg>
